<svg width="244" height="20" viewBox="0 0 244 20" fill="none" xmlns="http://www.w3.org/2000/svg">
<path d="M147 13C146.735 12.9972 146.48 13.1001 146.293 13.2877C146.105 13.4752 146 13.732 146 14C146 14.268 146.105 14.5248 146.293 14.7123C146.48 14.8999 146.735 15.0028 147 15C148.608 14.9833 150.217 14.9667 151.825 14.95C180.775 14.65 209.725 14.35 238.675 14.05C240.283 14.0333 241.892 14.0167 243.5 14C241.892 13.9833 240.283 13.9667 238.675 13.95C209.725 13.65 180.775 13.35 151.825 13.05C150.217 13.0333 148.608 13.0167 147 13Z" fill="#0F5D3A"/>
<path d="M96 13C96.2652 12.9972 96.5196 13.1001 96.7071 13.2877C96.8946 13.4752 97 13.732 97 14C97 14.268 96.8946 14.5248 96.7071 14.7123C96.5196 14.8999 96.2652 15.0028 96 15C94.4 14.9833 92.8 14.9667 91.2 14.95C62.4 14.65 33.6 14.35 4.8 14.05C3.19999 14.0333 1.6 14.0167 0 14C1.6 13.9833 3.19999 13.9667 4.8 13.95C33.6 13.65 62.4 13.35 91.2 13.05C92.8 13.0333 94.4 13.0167 96 13Z" fill="#0F5D3A"/>
<path d="M121 15.5C121.2 15.2417 121.39 14.9833 121.57 14.725C123.19 12.4 124 10.075 124 7.75C124 5.425 123.19 3.1 121.57 0.774999C121.39 0.516668 121.2 0.258335 121 0C120.8 0.258335 120.61 0.516668 120.43 0.774999C118.81 3.1 118 5.425 118 7.75C118 10.075 118.81 12.4 120.43 14.725C120.61 14.9833 120.8 15.2417 121 15.5Z" fill="#0F5D3A"/>
<path d="M124 18.9686C124.319 18.8962 124.629 18.8174 124.933 18.7323C127.661 17.9664 129.764 16.6858 131.241 14.8906C132.718 13.0953 133.57 10.7853 133.797 7.96062C133.822 7.64677 133.839 7.32656 133.849 7C133.53 7.07239 133.22 7.15114 132.916 7.23624C130.188 8.00215 128.085 9.28274 126.608 11.078C125.131 12.8733 124.279 15.1833 124.052 18.008C124.027 18.3218 124.01 18.642 124 18.9686Z" fill="#0F5D3A"/>
<path d="M119.188 19.6811C118.868 19.6178 118.555 19.548 118.249 19.4717C115.5 18.7844 113.362 17.5646 111.833 15.8125C110.305 14.0603 109.387 11.7757 109.08 8.95872C109.046 8.64572 109.019 8.32615 109 8C109.321 8.06322 109.634 8.13302 109.939 8.20938C112.688 8.89669 114.827 10.1164 116.355 11.8686C117.883 13.6207 118.801 15.9053 119.109 18.7223C119.143 19.0353 119.169 19.3549 119.188 19.6811Z" fill="#0F5D3A"/>
</svg>
